<svg width="865" height="866" viewBox="0 0 865 866" fill="none" xmlns="http://www.w3.org/2000/svg">
<mask id="mask0_12_1104" style="mask-type:luminance" maskUnits="userSpaceOnUse" x="0" y="120" width="741" height="404">
<path d="M0 120.911H740.953V523.578H0V120.911Z" fill="white"/>
</mask>
<g mask="url(#mask0_12_1104)">
<path d="M145.036 461.281C147.656 465.13 151.917 467.203 156.245 467.198C158.875 467.198 161.531 466.438 163.87 464.844C170.052 460.63 171.651 452.198 167.437 446.01L156.437 429.875C163.651 431.031 170.88 432.063 178.12 432.99C189.661 445.724 217.943 473.469 262.073 494.943C296.088 511.495 332.547 520.901 370.432 522.906C375.531 523.172 380.656 523.307 385.812 523.307C428.198 523.307 472.234 514.188 516.943 496.125C552.594 481.719 584.599 461.948 612.547 437.135C612.906 436.849 613.245 436.552 613.568 436.234C624.714 426.255 635.203 415.469 645.016 403.896C672.594 371.359 694.844 332.604 711.135 288.708C738.755 214.292 739.719 151.359 739.745 148.719C739.76 147.292 739.547 145.875 739.125 144.51C735.797 133.932 728.182 126.349 717.667 123.146C701.021 118.083 677.219 123.458 642.776 140.073C617.937 152.057 587.687 169.958 552.854 193.281C502.229 227.182 456.198 263.068 443.958 272.724C430.865 274.161 388.859 279.682 339.792 295.568C305.469 306.682 274.823 320.599 248.708 336.922C217.656 356.339 192.917 379.266 175.094 405.13C166.115 403.875 157.203 402.448 148.365 400.844L164.896 377.281C169.198 371.156 167.713 362.703 161.583 358.401C155.458 354.104 147.005 355.583 142.703 361.714L119.396 394.932C83.8177 386.849 49.8697 376.047 18.7395 363.135C11.8229 360.271 3.89578 363.552 1.02599 370.464C-1.83859 377.38 1.44266 385.313 8.35411 388.177C43.7135 402.839 80.8437 414.391 118.75 422.703L145.036 461.281ZM347.583 321.542C379.797 311.073 409.255 305.266 428.307 302.24C425.917 310.167 423.698 319.75 422.625 330.344C421.875 337.792 427.302 344.438 434.75 345.188C435.214 345.234 435.672 345.26 436.13 345.26C443 345.26 448.891 340.052 449.599 333.068C451.448 314.797 457.557 300.021 460.099 294.521C470.854 286.021 517.005 249.917 567.937 215.807C672.625 145.708 702.969 147.016 709.776 149.089C711.151 149.51 711.969 150.031 712.562 151C712.057 163.302 708.573 218.125 685.417 280.104C664.917 334.984 635.51 379.875 597.557 414.406C588.917 416.495 572.182 413.198 559.234 398.839C554.224 393.281 545.656 392.833 540.094 397.844C534.536 402.854 534.094 411.427 539.104 416.984C547.396 426.182 557.557 433.198 568.724 437.495C549.786 450.792 529.13 461.974 506.786 471C423.151 504.787 345.177 504.828 275.036 471.104C253.01 460.516 235.229 448.073 221.969 437.146C235.224 437.958 248.469 438.37 261.656 438.37C279.948 438.37 298.146 437.583 316.115 435.995C370.187 431.208 420.865 419.313 466.745 400.63C515.979 380.583 559.01 352.953 594.635 318.51C600.016 313.307 600.161 304.724 594.958 299.344C589.755 293.964 581.172 293.818 575.792 299.021C478.5 393.089 338.088 420.755 206.297 408.74C243.958 362.76 302.698 336.135 347.583 321.542Z" fill="#9B232C"/>
</g>
<mask id="mask1_12_1104" style="mask-type:luminance" maskUnits="userSpaceOnUse" x="52" y="522" width="813" height="344">
<path d="M52.9531 522.245H864.573V865.573H52.9531V522.245Z" fill="white"/>
</mask>
<g mask="url(#mask1_12_1104)">
<path d="M859.479 629.13L859.167 628.896L814.083 595.891L814.88 594.807L814.047 595.865C811.797 594.214 809.125 593.323 806.333 593.281C806.031 593.276 805.714 593.281 805.396 593.302C801.344 593.521 797.641 595.516 795.245 598.786L783.047 615.385L685.115 543.359C667.766 530.594 647.318 523.672 625.984 523.323C620.484 523.234 615.115 523.625 609.078 524.547C602.484 525.557 578.511 532.323 561 537.266L560.781 537.328C554.912 538.984 549.839 540.417 545.969 541.479L540.724 542.922L333.761 599.453C300.208 608.51 279.734 643.078 288.12 676.505C292.261 692.984 302.651 706.828 317.375 715.479C326.948 721.109 337.839 724.172 348.865 724.349C354.339 724.443 359.859 723.828 365.287 722.51L505.943 690.734C509.115 690.047 511.932 688.208 513.88 685.552C516.167 682.443 517.005 678.495 516.188 674.714C514.854 668.557 509.531 664.187 503.25 664.083C502.245 664.068 501.177 664.172 500.245 664.375L359.698 696.13L359.188 696.255C355.953 697.057 352.651 697.432 349.37 697.38C342.938 697.281 336.604 695.5 331.057 692.229C322.599 687.266 316.641 679.349 314.276 669.937C309.453 650.703 321.307 630.776 340.693 625.516L547.667 569.042C586.761 558.37 606.172 553.078 607.005 552.854C613.927 551.005 619.63 550.224 625.505 550.318C641.25 550.573 656.333 555.672 669.12 565.073L767.078 637.125L666.427 774.12L660.469 770.094L660.307 769.979C649.547 762.12 636.87 757.854 623.641 757.641C620.375 757.589 617.083 757.786 613.849 758.229C613.359 758.297 612.886 758.391 612.203 758.562L373.505 815.25L372.969 815.307C371.844 815.396 370.662 815.432 369.443 815.417C365.292 815.349 361.255 814.609 357.453 813.219C354.031 811.979 350.896 810.302 348.146 808.24L95.4897 623.573L95.3855 623.5C87.4584 617.635 82.2761 609.021 80.7813 599.245C79.2761 589.422 81.6824 579.609 87.5522 571.625C94.1563 562.63 104.359 557.13 115.537 556.521C116.401 556.474 117.281 556.458 118.151 556.474C125.839 556.594 133.182 559.047 139.37 563.562L232.083 630.734L232.24 630.854C232.521 631.073 232.807 631.281 233.136 631.5L233.724 631.922C235.958 633.568 238.625 634.464 241.438 634.505C245.802 634.578 249.948 632.521 252.531 629.01C254.667 626.099 255.542 622.536 254.995 618.979C254.453 615.437 252.573 612.318 249.708 610.198L155.443 541.896L155.276 541.776C144.578 533.969 131.906 529.724 118.641 529.51C117.141 529.49 115.62 529.516 114.13 529.594C94.823 530.641 77.2136 540.135 65.8178 555.651C55.6928 569.432 51.5417 586.365 54.1355 603.323C56.7136 620.193 65.6615 635.057 79.323 645.167L332.162 829.969C337.13 833.599 342.521 836.49 348.198 838.557C354.865 840.984 361.896 842.276 369.099 842.391C371.677 842.437 374.276 842.318 376.787 842.057L377.333 841.984C377.427 841.969 377.505 841.958 377.615 841.937L378.047 841.859C378.156 841.844 378.276 841.823 378.354 841.812L378.719 841.734L617.563 785.016L618.323 784.875L618.406 784.865C619.984 784.687 621.594 784.615 623.172 784.635C630.839 784.76 638.172 787.224 644.406 791.776L650.448 795.865L638.011 812.792C633.62 818.766 634.891 827.214 640.844 831.62L683.589 863.187C685.839 864.88 688.552 865.797 691.448 865.844C691.74 865.849 692.068 865.844 692.391 865.823C699.464 865.443 705.094 859.589 705.208 852.5C705.271 848.661 703.693 844.958 700.875 842.339C700.219 841.729 699.495 841.177 698.729 840.708L667.734 817.891L808.99 625.625L842.344 650.167L842.609 650.38C844.984 652.318 847.87 653.365 850.958 653.417C851.266 653.422 851.594 653.417 851.906 653.396C858.979 653.016 864.609 647.161 864.724 640.068C864.797 635.771 862.833 631.682 859.479 629.13Z" fill="#9B232C"/>
</g>
<path d="M137.766 156.281C152.396 158.589 193.495 167.859 207.687 182.797C211.474 186.781 218.76 198.109 225.036 229.203C228.849 248.078 230.276 264.74 230.292 264.901C230.859 271.63 236.495 276.76 243.182 276.76C243.375 276.76 243.562 276.755 243.76 276.75C250.703 276.443 256.161 270.719 256.135 263.771C256.099 247.255 259.995 200.62 278.234 183.255C301.021 161.562 347.495 156.417 347.958 156.37C354.521 155.672 359.516 150.151 359.547 143.552C359.573 136.953 354.641 131.391 348.083 130.641C347.953 130.625 333.734 128.948 317.755 124.573C291.943 117.5 282.781 109.453 279.62 105.286C268.115 90.1302 259.047 45.901 256.036 21.5781C255.229 15.0573 249.682 10.1875 243.094 10.2291C236.526 10.276 231.036 15.2448 230.328 21.776C228.453 39 220.583 87.5625 206.87 105.146C200.964 112.724 187.26 119.719 168.281 124.854C152.484 129.125 138.583 130.604 138.443 130.62C131.979 131.292 127.01 136.661 126.844 143.156C126.667 149.661 131.344 155.276 137.766 156.281ZM227.276 121.068C233.318 113.318 238.703 101.906 243.38 87.0052C248.036 102.021 253.266 113.385 258.995 120.937C265.885 130.016 277.5 137.714 293.625 143.922C281.714 148.87 269.792 155.547 260.375 164.51C253.031 171.5 246.969 181.146 242.214 193.344C237.75 180.75 232.526 171.37 226.448 164.969C219.047 157.182 207.599 150.25 192.297 144.266C208.328 138.099 220.057 130.328 227.276 121.068Z" fill="#9B232C"/>
<mask id="mask2_12_1104" style="mask-type:luminance" maskUnits="userSpaceOnUse" x="378" y="0" width="142" height="160">
<path d="M378.287 0H519.62V159.578H378.287V0Z" fill="white"/>
</mask>
<g mask="url(#mask2_12_1104)">
<path d="M388.297 90.2917C400.323 92.1979 420.099 97.849 426.37 104.453C432.542 110.953 437.188 135.099 438.38 149.375C438.849 154.984 443.547 159.26 449.12 159.26C449.281 159.26 449.438 159.255 449.599 159.25C455.38 159 459.932 154.229 459.917 148.448C459.891 135.875 463.021 112.911 471.505 104.833C481.62 95.2083 502.307 91.125 509.422 90.3646C514.891 89.7813 519.047 85.1771 519.068 79.6823C519.094 74.1875 514.979 69.5521 509.521 68.9219C497.651 67.5417 477.714 62.3906 472.656 55.7292C466.5 47.6146 461.521 23.0469 459.828 9.46875C459.162 4.06771 454.563 0.015625 449.13 0.015625C449.099 0.015625 449.068 0.015625 449.042 0.015625C443.568 0.0572917 438.995 4.19271 438.401 9.63542C436.948 22.9688 432.208 47.2448 425.677 55.6198C420.156 62.6979 400.818 67.651 388.844 68.9063C383.458 69.474 379.323 73.9479 379.182 79.3594C379.052 84.776 382.943 89.4531 388.297 90.2917ZM442.693 68.8854C445.182 65.6927 447.344 61.6667 449.214 57.224C451.037 61.6615 453.12 65.6615 455.479 68.776C458.698 73.0156 463.495 76.7552 469.802 79.9531C464.667 82.6563 460.266 85.75 456.636 89.2083C453.505 92.1875 450.906 95.8073 448.761 99.7656C446.74 95.5833 444.495 92.2031 442.01 89.5885C438.448 85.8438 433.615 82.6927 428.339 80.0781C434.563 76.901 439.365 73.1615 442.693 68.8854Z" fill="#9B232C"/>
</g>
</svg>
