<svg width="625" height="859" viewBox="0 0 625 859" fill="none" xmlns="http://www.w3.org/2000/svg">
<path fill-rule="evenodd" clip-rule="evenodd" d="M155.556 2.62891C157.749 -0.876302 163.004 -0.876302 165.197 2.62891C180.53 3.94662 196.306 10.0768 205.941 22.3477C214.269 32.8633 216.894 46.4466 217.775 59.5872C219.087 62.2175 219.962 65.2852 220.4 67.9154C225.66 72.2956 232.233 73.6081 237.488 77.1133C239.243 77.9935 239.681 81.0612 237.488 81.4987C228.29 84.5664 218.212 85.0039 208.572 86.3164C210.764 90.2591 213.389 93.3268 215.144 97.707C220.842 99.4622 227.41 100.775 230.915 105.598C229.603 113.483 223.905 120.493 223.467 128.379C219.962 131.447 218.212 135.389 215.582 139.332C220.4 145.905 223.905 153.353 226.098 161.681C226.535 164.306 228.29 166.061 230.04 167.811C233.108 171.316 233.983 175.702 235.301 179.645C242.749 183.587 249.759 189.28 254.577 195.853C256.769 198.921 260.275 200.238 262.467 202.863C260.275 206.811 257.207 210.316 254.139 213.379C257.207 217.764 260.275 222.582 264.217 226.087C271.665 233.535 279.993 239.671 286.561 247.556C295.327 257.634 300.582 270.78 307.155 282.608C311.54 290.936 316.358 298.822 322.056 306.27C323.806 306.707 325.999 307.145 326.874 308.9C331.691 315.91 336.077 322.921 341.332 329.493C344.4 330.806 347.03 332.556 349.217 334.749C352.285 332.118 353.16 326.863 357.108 326.426C361.051 326.863 363.676 330.806 365.431 333.874C367.181 333.436 369.374 332.999 370.686 334.749C375.072 340.009 377.697 346.139 380.327 351.837C382.52 356.655 384.707 361.915 383.832 367.608C389.53 371.556 388.655 379.879 385.587 385.139C389.967 387.764 394.785 389.957 400.046 390.832C404.863 390.832 407.931 386.452 410.999 383.822C426.77 393.025 441.671 403.54 457.004 413.181C510.02 446.915 563.035 481.53 616.056 515.707C619.999 518.775 625.691 521.4 624.379 527.098C622.186 539.806 613.426 550.759 603.348 558.645C599.842 561.275 595.025 564.342 590.639 562.587C584.509 559.957 579.249 555.577 573.551 552.072C531.931 526.223 490.306 499.056 448.681 471.889C425.895 456.556 402.676 442.098 379.889 426.322C381.645 421.941 384.27 417.124 382.52 412.301C381.645 410.551 380.764 406.171 378.139 409.233C379.889 414.056 375.947 418.436 371.566 419.749C366.306 421.941 361.051 419.749 355.79 418.436C352.285 417.999 349.655 416.244 346.15 416.686C342.645 416.686 340.02 414.494 336.952 414.494C333.009 414.494 329.066 413.619 326.436 410.551C322.493 411.863 318.108 410.551 315.483 407.483C312.853 403.103 309.785 397.842 309.785 392.587C307.155 389.52 305.405 385.139 305.405 380.754C305.405 377.686 307.592 375.936 310.223 374.181C308.91 371.994 307.592 369.363 304.53 368.488C300.144 360.16 287.879 362.79 282.618 355.342C260.712 350.962 238.368 347.02 217.337 337.816C208.134 334.311 199.811 329.051 190.608 325.108C186.665 322.921 182.723 319.853 179.655 316.785C178.78 327.301 177.9 338.254 173.957 348.332C187.978 345.702 203.316 351.837 211.202 364.103C216.019 370.676 216.019 378.566 216.894 386.014C216.894 389.957 219.087 393.462 221.28 396.967C226.098 404.853 231.358 412.738 235.738 421.066C240.556 430.264 244.499 440.342 251.072 448.671C255.457 455.244 258.519 462.691 262.025 469.702C266.41 479.337 273.858 487.228 276.046 497.744C277.363 503.874 278.238 510.009 279.113 516.145C292.259 510.009 307.592 510.447 321.613 513.514C325.999 514.389 330.816 517.02 331.254 521.842C330.816 527.535 327.749 532.796 325.999 538.051C322.931 546.379 320.301 554.702 318.988 563.462C319.426 569.16 319.863 575.733 316.358 580.994C320.738 587.561 318.108 597.639 311.978 602.025C313.29 606.842 311.978 612.978 308.035 616.046C308.91 622.613 305.405 630.941 298.394 632.691C297.077 637.077 294.452 641.457 291.822 645.4C283.936 663.363 277.363 682.202 269.915 700.608C258.519 730.4 246.691 759.759 235.301 789.551C232.671 796.561 230.915 804.009 227.41 810.145C228.728 814.087 230.915 818.03 233.546 821.098C238.806 825.921 246.254 827.671 250.634 833.806C254.139 838.186 255.014 844.322 253.264 849.577C252.827 854.4 248.441 858.342 243.624 858.78C238.368 858.78 233.108 858.342 228.29 856.15C224.785 856.15 221.28 855.712 219.087 853.52C218.212 853.52 216.894 853.52 216.019 853.52C212.952 851.77 208.572 851.77 205.504 849.139C201.124 847.389 196.743 846.509 192.801 843.884C187.103 851.77 177.025 855.275 167.384 854.4C154.243 853.082 141.973 845.197 134.087 834.244C127.077 823.29 125.759 810.145 120.066 798.754C116.561 801.822 111.738 805.764 106.483 804.447C103.415 804.009 101.665 801.384 100.348 798.754C94.6549 797.879 91.5872 792.619 90.707 787.801C88.5195 776.848 88.082 765.452 86.3268 754.061C85.0143 748.363 82.3841 742.233 79.3164 736.973C72.7435 725.145 66.6132 712.436 65.2955 698.853C65.2955 696.223 64.4205 694.035 63.1028 692.28C58.7226 683.957 57.8476 674.754 56.5351 665.994C55.6549 659.858 56.5351 653.723 56.5351 647.592C56.9726 641.02 58.2851 634.009 63.1028 629.186C59.5976 622.176 55.6549 615.603 53.4674 608.155C49.9622 597.202 46.457 585.811 43.3893 574.858C40.7591 565.217 39.0091 555.139 36.8164 545.499C34.1862 533.671 29.3684 522.717 23.6705 512.639C21.483 509.134 19.7278 505.629 18.8528 502.124C14.0299 487.665 10.0872 473.207 7.4622 458.306C5.70699 447.353 3.95699 436.4 1.76428 425.447C-0.428426 413.619 -1.30343 400.91 3.51428 389.52C4.83199 386.014 7.01949 383.384 8.3372 380.316C9.6497 375.936 9.2122 370.676 11.8424 366.733C8.3372 361.478 8.3372 354.467 8.7747 348.332C9.6497 343.072 10.0872 337.379 11.4049 332.118C11.8424 329.051 14.4726 326.426 13.5924 322.921C12.2799 317.223 15.3476 311.967 16.2226 306.707C17.5351 299.697 17.5351 292.249 18.4153 285.238C19.7278 263.332 22.7955 240.983 28.4934 219.514C32.4362 204.618 38.5664 191.035 43.8268 176.577C47.332 167.374 52.5872 158.176 59.1601 150.723C66.1705 143.275 74.0612 136.702 82.3841 130.134C86.7643 125.749 90.707 120.493 94.6549 115.233C95.9674 110.415 96.4049 105.155 99.9101 100.775C101.665 97.707 105.608 95.957 109.113 94.6393C107.358 87.6289 106.046 80.181 105.608 73.1706C103.853 72.7331 101.665 73.1706 100.348 71.4206C99.4726 67.4779 99.9101 63.5352 99.9101 59.5872C100.348 59.1497 101.223 58.2747 101.665 57.8372C102.978 42.5039 109.551 26.7279 121.379 15.7747C130.582 7.45182 143.285 3.50391 155.556 2.62891ZM202.436 98.5872C202.436 101.65 202.874 104.717 203.316 107.785C206.379 105.598 209.884 103.405 212.077 100.337C209.009 98.5872 205.504 99.0247 202.436 98.5872ZM204.629 108.223C206.379 109.54 208.134 109.103 209.884 109.103C216.019 108.223 222.592 108.66 228.29 106.035C223.905 102.967 219.087 101.65 214.269 99.8997C212.077 103.405 208.572 106.035 204.629 108.223ZM205.941 112.608C211.202 115.671 217.337 118.301 221.28 123.124C223.905 119.176 225.223 114.358 227.41 109.978C220.4 112.165 212.952 111.728 205.941 112.608ZM196.743 118.738C198.931 120.493 201.124 122.243 203.754 123.999C203.754 120.931 203.754 117.863 203.316 114.358C202.436 113.921 201.561 113.921 200.686 113.483C199.368 115.233 197.618 116.988 196.743 118.738ZM205.504 115.233C205.941 119.618 205.504 124.436 207.697 128.379C208.572 131.447 212.514 130.134 214.707 129.691C216.894 129.254 220.4 128.816 220.4 126.186C217.337 120.493 211.202 117.863 205.504 115.233ZM211.202 133.197C212.077 134.077 212.514 136.702 214.269 136.702C215.582 135.389 216.457 133.639 217.337 132.322C215.144 132.322 212.952 132.759 211.202 133.197ZM201.124 224.337C198.931 235.29 196.743 245.806 194.551 256.322C196.306 259.827 198.493 263.332 200.249 266.837C202.436 270.78 203.754 275.16 206.822 278.665C210.327 281.296 215.144 282.171 219.087 283.926C240.118 290.936 257.207 305.395 275.608 317.223C281.743 320.728 288.316 324.671 295.327 326.426C295.327 325.546 294.889 325.108 294.014 324.233C282.618 314.592 269.478 307.145 258.082 297.504C246.691 287.431 237.488 274.723 231.358 261.139C227.41 253.254 222.155 246.243 216.894 239.233C215.582 238.796 214.269 238.796 213.389 237.478C209.447 232.66 205.504 228.28 201.124 224.337ZM142.41 517.457C141.973 532.796 142.848 548.129 142.848 563.462C143.285 570.478 141.973 577.926 141.973 584.936C142.41 592.384 144.603 599.832 144.603 607.28C148.108 607.717 152.488 608.592 154.681 611.66C158.624 616.921 161.691 622.176 163.004 628.311C164.316 634.009 164.759 639.264 165.634 644.962C166.509 652.848 167.822 660.733 165.634 668.624C165.197 671.249 162.566 673.441 163.879 676.072C166.509 686.15 167.384 696.665 166.509 706.738C165.634 712.436 165.197 717.697 163.004 722.952C163.879 728.212 165.197 733.03 166.509 738.285C168.702 733.467 170.014 728.212 172.207 723.389C173.082 721.202 171.769 719.447 171.327 717.254C168.264 710.686 168.264 702.796 170.014 695.348C172.207 686.15 177.462 678.259 180.092 669.061C181.405 667.306 179.217 665.994 178.337 665.119C179.655 654.603 183.16 644.525 186.665 634.884C187.103 634.447 188.415 634.009 189.296 634.009C189.733 628.749 190.608 623.494 192.358 618.671C195.426 610.785 201.124 604.212 205.941 597.202C203.754 594.134 205.504 590.191 205.066 586.686C200.249 585.811 194.113 587.124 190.171 583.619C186.228 580.113 187.54 573.983 184.035 570.478C180.967 566.092 177.462 562.587 174.394 558.645C164.759 544.186 155.556 528.853 142.41 517.457Z" fill="#9B232C"/>
<path fill-rule="evenodd" clip-rule="evenodd" d="M586.696 385.139C594.581 383.384 602.91 385.577 608.602 391.269C615.613 398.28 616.93 410.113 612.55 418.874C606.852 430.264 591.076 435.087 579.686 428.514C568.732 422.379 565.227 407.045 571.363 396.092C574.868 390.394 580.561 386.452 586.696 385.139Z" fill="#9B232C"/>
</svg>
