<svg width="986" height="775" viewBox="0 0 986 775" fill="none" xmlns="http://www.w3.org/2000/svg">
<mask id="mask0_12_1102" style="mask-type:luminance" maskUnits="userSpaceOnUse" x="0" y="0" width="986" height="775">
<path d="M0 0H985.604V774.255H0V0Z" fill="white"/>
</mask>
<g mask="url(#mask0_12_1102)">
<path fill-rule="evenodd" clip-rule="evenodd" d="M550.63 549.828L550.38 549.891L549.641 549.974L549.115 550.193L548.901 550.245L548.766 550.344L548.458 550.469L547.766 551.042L547.625 551.141L547.594 551.177L547.453 551.297C547.156 551.625 546.906 552 546.708 552.417L539.432 568.078C539.115 568.76 538.641 569.339 538.052 569.776L537.401 570.146L537.12 570.313C536.776 570.453 536.417 570.552 536.047 570.609L519.276 573.094C516.828 573.453 515.141 575.729 515.5 578.172C515.641 579.115 516.073 579.984 516.74 580.661L521.667 585.667L521.661 585.682L529.193 593.328C530.198 594.349 530.656 595.792 530.417 597.208L527.453 614.906C527.37 615.406 527.375 615.917 527.464 616.411L527.51 616.563L527.516 616.682L527.693 617.068L527.964 617.828L528.13 618.026L528.229 618.245L528.703 618.693L529.12 619.177L529.328 619.281L529.474 619.427L530.01 619.63L530.651 619.953L530.917 619.974L531.135 620.057H531.885L532.359 620.094L532.49 620.052H532.641C533.135 619.969 533.609 619.802 534.052 619.552L548.599 611.432C548.938 611.245 549.297 611.104 549.661 611.005L550.776 610.865L551.896 611.005C552.266 611.104 552.62 611.245 552.958 611.432L567.505 619.552C567.948 619.802 568.427 619.969 568.922 620.052H569.068L569.198 620.094L569.672 620.057H570.422L570.641 619.974L570.906 619.953L571.552 619.63L572.083 619.427L572.234 619.281L572.438 619.177L572.859 618.693L573.328 618.245L573.432 618.026L573.594 617.828L573.87 617.068L574.042 616.682L574.047 616.563L574.099 616.411C574.182 615.917 574.188 615.406 574.104 614.906L571.146 597.208C570.906 595.792 571.359 594.349 572.37 593.328L581.917 583.635L581.911 583.62L584.823 580.661C585.484 579.984 585.922 579.115 586.057 578.172C586.417 575.729 584.729 573.453 582.281 573.094L565.51 570.609C565.141 570.552 564.781 570.453 564.443 570.313L564.156 570.146L563.505 569.776C562.922 569.339 562.443 568.76 562.125 568.078L554.849 552.417C554.651 552 554.401 551.625 554.104 551.297L553.964 551.177L553.932 551.141L553.797 551.042L553.104 550.469L552.792 550.344L552.656 550.245L552.438 550.193L551.917 549.974L551.182 549.891L550.927 549.828L550.776 549.844L550.63 549.828ZM434.677 549.828L434.422 549.891L433.688 549.974L433.167 550.193L432.948 550.245L432.813 550.344L432.505 550.469L431.807 551.042L431.672 551.141L431.641 551.177L431.5 551.297C431.203 551.625 430.953 552 430.755 552.417L423.479 568.078C423.161 568.76 422.682 569.339 422.099 569.776L421.448 570.146L421.161 570.313C420.823 570.453 420.464 570.552 420.094 570.609L403.323 573.094C400.875 573.453 399.188 575.729 399.547 578.172C399.682 579.115 400.12 579.984 400.781 580.661L405.708 585.667L405.703 585.682L413.24 593.328C414.245 594.349 414.698 595.792 414.458 597.208L411.5 614.906C411.417 615.406 411.422 615.917 411.505 616.411L411.557 616.563L411.563 616.682L411.734 617.068L412.01 617.828L412.177 618.026L412.276 618.245L412.75 618.693L413.167 619.177L413.37 619.281L413.521 619.427L414.057 619.63L414.698 619.953L414.964 619.974L415.182 620.057H415.932L416.406 620.094L416.536 620.052H416.682C417.177 619.969 417.656 619.802 418.099 619.552L432.646 611.432C432.984 611.245 433.339 611.104 433.708 611.005L434.828 610.865L435.943 611.005C436.307 611.104 436.667 611.245 437.005 611.432L451.552 619.552C451.995 619.802 452.469 619.969 452.969 620.052H453.115L453.245 620.094L453.719 620.057H454.469L454.688 619.974L454.953 619.953L455.594 619.63L456.13 619.427L456.276 619.281L456.484 619.177L456.901 618.693L457.375 618.245L457.474 618.026L457.641 617.828L457.911 617.068L458.089 616.682L458.094 616.563L458.146 616.411C458.229 615.917 458.234 615.406 458.151 614.906L455.188 597.208C454.948 595.792 455.406 594.349 456.411 593.328L465.958 583.635L465.953 583.62L468.865 580.661C469.531 579.984 469.964 579.115 470.104 578.172C470.464 575.729 468.776 573.453 466.328 573.094L449.557 570.609C449.188 570.552 448.828 570.453 448.484 570.313L448.203 570.146L447.552 569.776C446.964 569.339 446.49 568.76 446.172 568.078L438.896 552.417C438.698 552 438.448 551.625 438.151 551.297L438.01 551.177L437.979 551.141L437.839 551.042L437.146 550.469L436.839 550.344L436.703 550.245L436.484 550.193L435.964 549.974L435.229 549.891L434.974 549.828L434.828 549.844L434.677 549.828ZM241.75 515.635H743.854L740.958 521.646C693.172 609.615 599.958 669.339 492.802 669.339C385.646 669.339 292.432 609.615 244.646 521.646L241.75 515.635ZM131.62 515.635H221.995L228.979 530.135C279.786 623.661 378.88 687.151 492.802 687.151C606.724 687.151 705.818 623.661 756.625 530.135L763.609 515.635H853.984L853.849 523.505L852.604 527.464L851.938 530.979L850.828 533.099L848.802 539.547L845.307 543.703L844.167 545.891L841.693 548L837.589 552.88L832.344 555.974L831.37 556.807L829.661 557.557L827.052 559.094L824.885 559.656L823.474 560.276L817.359 561.599L815.203 562.156C809.182 562.844 803.583 564.714 798.62 567.516L788.016 576.568L784.807 580.385L778.052 593.359C776.438 598.828 775.87 604.703 776.557 610.724C776.828 613.141 777.307 615.526 777.974 617.865C781.323 629.51 779.635 641.406 774.198 651.229L771.974 653.88L769.531 657.599L767.271 659.495L763.396 664.115C758.964 667.703 753.76 670.474 747.938 672.151L745.557 672.484L740.646 673.568L737.411 673.63L735.818 673.854L734.635 673.688L732.031 673.745C729.125 673.516 726.203 672.99 723.292 672.151L719 671.297L715.807 670.719L710.682 670.656L706.542 670.745L705.26 670.99L698.094 672.573L688.224 677.719L679.688 684.875L675.359 689.948L672.745 693.932C671.396 696.51 670.281 699.266 669.448 702.177C668.766 704.536 668.292 706.943 668.016 709.38C667.328 715.401 665.458 720.995 662.656 725.958L659.656 729.474L658.302 731.766L656.167 733.563L651.74 738.75L647.156 741.135L644.969 742.974L641.563 744.047L636.823 746.516L629.021 747.995L628.927 748.026H628.859L628.349 748.12L625.432 748.083L620.51 748.172L619.609 748.01H619.464L619.172 747.932L612.161 746.693L607.807 744.995L607.635 744.948L607.526 744.885L604.125 743.557C601.531 742.24 599.026 740.635 596.656 738.75C594.75 737.229 592.719 735.875 590.583 734.693C587.938 733.224 585.203 732.063 582.417 731.188L574.786 729.599L573.828 729.432L569.536 729.396L564.88 729.474L564.786 729.495L552.229 733.448L546.771 736.234L537.771 743.797L533.063 749.328L531.406 751.807L527.453 756.453L523.599 761.573L522.203 762.62L520.115 765.073L516.495 766.922L513.833 768.927L505.849 772.349L505.135 772.719C502.438 773.49 499.667 774.01 496.859 774.255L492.802 774.224L488.745 774.255C485.938 774.01 483.167 773.49 480.469 772.719L479.75 772.349L471.771 768.927L469.115 766.922L465.49 765.073L463.401 762.62L462.005 761.573L458.156 756.458L454.198 751.807L452.542 749.323L447.833 743.797L438.833 736.234L433.37 733.448L420.818 729.495L420.724 729.474L416.068 729.396L411.776 729.432L410.818 729.604L403.188 731.188C400.406 732.063 397.667 733.224 395.021 734.693C392.885 735.875 390.854 737.229 388.948 738.75C386.578 740.635 384.073 742.24 381.479 743.557L378.078 744.885L377.969 744.948L377.797 744.995L373.443 746.693L366.432 747.932L366.141 748.01H365.995L365.094 748.172L360.172 748.083L357.255 748.12L356.745 748.026H356.677L356.583 747.995L348.781 746.516L344.047 744.047L340.635 742.974L338.443 741.13L333.865 738.75L329.438 733.563L327.302 731.766L325.948 729.474L322.948 725.958C320.146 720.995 318.271 715.401 317.589 709.38C317.318 706.943 316.839 704.536 316.161 702.177C315.323 699.266 314.208 696.51 312.859 693.932L310.245 689.948L305.917 684.875L297.38 677.719L287.505 672.573L280.344 670.99L279.063 670.745L274.922 670.656L269.797 670.719L266.609 671.297L262.313 672.151C259.401 672.99 256.479 673.516 253.573 673.745L250.969 673.688L249.781 673.854L248.193 673.63L244.958 673.568L240.052 672.484L237.667 672.151C231.844 670.474 226.641 667.703 222.208 664.115L218.333 659.495L216.073 657.599L213.63 653.88L211.406 651.229C205.969 641.406 204.281 629.51 207.63 617.865C208.297 615.526 208.776 613.141 209.047 610.724C209.734 604.703 209.167 598.828 207.552 593.359L200.797 580.385L197.589 576.568L186.984 567.516C182.021 564.714 176.422 562.844 170.396 562.156L168.245 561.599L162.13 560.276L160.719 559.656L158.552 559.094L155.943 557.557L154.234 556.807L153.255 555.974L148.016 552.88L143.911 548.005L141.438 545.891L140.297 543.698L136.802 539.547L134.776 533.104L133.667 530.979L133 527.458L131.755 523.505L131.62 515.635ZM565.708 351.734L574.885 407.448H556.531L565.708 351.734ZM291.729 351.734L300.906 407.448H282.557L291.729 351.734ZM463.37 337.313H472.542C479.328 337.313 484.021 338.896 486.635 342.068C489.25 345.234 490.557 350.313 490.557 357.302C490.557 364.516 489.083 369.703 486.135 372.87C483.193 376.042 478.214 377.625 471.208 377.625H463.37V337.313ZM370.036 337.313H379.208C385.995 337.313 390.693 338.896 393.302 342.068C395.917 345.234 397.224 350.313 397.224 357.302C397.224 364.516 395.75 369.703 392.802 372.87C389.854 376.042 384.88 377.625 377.875 377.625H370.036V337.313ZM773.568 320.76L800.922 402.859V453.495H824.443V402.859L851.458 320.76H828.943L813.266 373.365L796.583 320.76H773.568ZM702.411 320.76V338.62H723.932V453.495H748.615V338.62H769.63V320.76H702.411ZM619.495 320.76V453.495H640.51V374.182L673.536 453.495H689.88V320.76H669.536V396.469L636.677 320.76H619.495ZM552.365 320.76L525.344 453.495H548.531L554.031 422.854H577.552L582.891 453.495H605.74L578.719 320.76H552.365ZM438.849 320.76V453.495H463.37V392.698H475.047L491.224 453.495H515.911L497.063 388.115C503.177 385.708 507.484 381.854 509.99 376.557C512.49 371.26 513.74 364.406 513.74 355.995C513.74 343.104 510.24 334.005 503.234 328.708C496.229 323.411 485.609 320.76 471.375 320.76H438.849ZM345.516 320.76V453.495H370.036V392.698H381.708L397.891 453.495H422.573L403.729 388.115C409.844 385.708 414.151 381.854 416.656 376.557C419.156 371.26 420.406 364.406 420.406 355.995C420.406 343.104 416.906 334.005 409.901 328.708C402.896 323.411 392.276 320.76 378.042 320.76H345.516ZM278.391 320.76L251.365 453.495H274.552L280.057 422.854H303.573L308.911 453.495H331.76L304.74 320.76H278.391ZM134.146 320.76L153.156 453.495H173.672L188.516 364.516L203.531 453.495H223.547L242.396 320.76H222.047L211.036 406.792L196.526 321.089H179.844L165.833 406.792L154.661 320.76H134.146ZM0 276.099H985.604L930.146 387.13L985.604 498.156H0L55.4583 387.13L0 276.099ZM550.63 154.161L550.38 154.219L549.641 154.302L549.115 154.521L548.901 154.573L548.766 154.672L548.458 154.802L547.766 155.37L547.625 155.469L547.594 155.51L547.453 155.63C547.156 155.953 546.906 156.328 546.708 156.75L539.432 172.406C539.115 173.089 538.641 173.672 538.052 174.109L537.401 174.474L537.12 174.641C536.776 174.781 536.417 174.885 536.047 174.938L519.276 177.422C516.828 177.786 515.141 180.057 515.5 182.505C515.641 183.443 516.073 184.313 516.74 184.99L521.667 190L521.661 190.01L529.193 197.661C530.198 198.682 530.656 200.125 530.417 201.536L527.453 219.234C527.37 219.734 527.375 220.245 527.464 220.74L527.51 220.891L527.516 221.01L527.693 221.396L527.964 222.161L528.13 222.354L528.229 222.573L528.703 223.021L529.12 223.51L529.328 223.615L529.474 223.755L530.01 223.958L530.651 224.281L530.917 224.307L531.135 224.391L531.885 224.385L532.359 224.427L532.49 224.385H532.641C533.135 224.297 533.609 224.13 534.052 223.885L548.599 215.766C548.938 215.578 549.297 215.432 549.661 215.339L550.776 215.198L551.896 215.339C552.266 215.432 552.62 215.578 552.958 215.766L567.505 223.885C567.948 224.13 568.427 224.297 568.922 224.385H569.068L569.198 224.427L569.672 224.385L570.422 224.391L570.641 224.307L570.906 224.281L571.552 223.958L572.083 223.755L572.234 223.615L572.438 223.51L572.859 223.021L573.328 222.573L573.432 222.354L573.594 222.161L573.87 221.396L574.042 221.01L574.047 220.891L574.099 220.74C574.182 220.245 574.188 219.734 574.104 219.234L571.146 201.536C570.906 200.125 571.359 198.682 572.37 197.661L581.917 187.964L581.911 187.953L584.823 184.99C585.484 184.313 585.922 183.443 586.057 182.505C586.417 180.057 584.729 177.786 582.281 177.422L565.51 174.938C565.141 174.885 564.781 174.781 564.443 174.641L564.156 174.479L563.505 174.109C562.922 173.672 562.443 173.089 562.125 172.406L554.849 156.75C554.651 156.328 554.401 155.953 554.104 155.63L553.964 155.51L553.932 155.469L553.797 155.37L553.104 154.802L552.792 154.672L552.656 154.573L552.438 154.521L551.917 154.302L551.182 154.219L550.927 154.161L550.776 154.177L550.63 154.161ZM434.677 154.161L434.422 154.219L433.688 154.302L433.167 154.521L432.948 154.573L432.813 154.672L432.505 154.802L431.807 155.37L431.672 155.469L431.641 155.51L431.5 155.63C431.203 155.953 430.953 156.328 430.755 156.75L423.479 172.406C423.161 173.089 422.682 173.672 422.099 174.109L421.448 174.474L421.161 174.641C420.823 174.781 420.464 174.885 420.094 174.938L403.323 177.422C400.875 177.786 399.188 180.057 399.547 182.505C399.682 183.443 400.12 184.313 400.781 184.99L405.708 190L405.703 190.01L413.24 197.661C414.245 198.682 414.698 200.125 414.458 201.536L411.5 219.234C411.417 219.734 411.422 220.245 411.505 220.74L411.557 220.891L411.563 221.01L411.734 221.396L412.01 222.161L412.177 222.354L412.276 222.573L412.75 223.021L413.167 223.51L413.37 223.615L413.521 223.755L414.057 223.958L414.698 224.281L414.964 224.307L415.182 224.391L415.932 224.385L416.406 224.427L416.536 224.385H416.682C417.177 224.297 417.656 224.13 418.099 223.885L432.646 215.766C432.984 215.578 433.339 215.432 433.708 215.339L434.828 215.198L435.943 215.339C436.307 215.432 436.667 215.578 437.005 215.766L451.552 223.885C451.995 224.13 452.469 224.297 452.969 224.385H453.115L453.245 224.427L453.719 224.385L454.469 224.391L454.688 224.307L454.953 224.281L455.594 223.958L456.13 223.755L456.276 223.615L456.484 223.51L456.901 223.021L457.375 222.573L457.474 222.354L457.641 222.161L457.911 221.396L458.089 221.01L458.094 220.891L458.146 220.74C458.229 220.245 458.234 219.734 458.151 219.234L455.188 201.536C454.948 200.125 455.406 198.682 456.411 197.661L465.958 187.964L465.953 187.953L468.865 184.99C469.531 184.313 469.964 183.443 470.104 182.505C470.464 180.057 468.776 177.786 466.328 177.422L449.557 174.938C449.188 174.885 448.828 174.781 448.484 174.641L448.203 174.479L447.552 174.109C446.964 173.672 446.49 173.089 446.172 172.406L438.896 156.75C438.698 156.328 438.448 155.953 438.151 155.63L438.01 155.51L437.979 155.469L437.839 155.37L437.146 154.802L436.839 154.672L436.703 154.573L436.484 154.521L435.964 154.302L435.229 154.219L434.974 154.161L434.828 154.177L434.677 154.161ZM492.802 104.922C599.958 104.922 693.172 164.641 740.958 252.609L743.854 258.62H241.75L244.646 252.609C292.432 164.641 385.646 104.922 492.802 104.922ZM489.057 0L492.802 0.213542L496.547 0L499.375 0.59375L501.776 0.734375L504.068 1.58333L506.828 2.16667L510.953 4.14063L514.146 5.32813L515.401 6.28125L516.328 6.72396L519.844 9.61979L523.906 12.6875L524.495 13.4635L524.573 13.526L525.547 14.8594L531.266 22.4479L539.479 32.1667L545.651 37.3646L553.104 41.1927L564.307 44.7344L564.635 44.7969L572.906 44.9479C581.328 44.2865 589.651 41.1979 596.76 35.5469L601.094 32.9844L604.583 30.7396L605.49 30.3854L607.313 29.3125L610.135 28.5833L612.62 27.6146L616.547 26.9219L619.182 26.2396L620.505 26.224L620.969 26.1406L623.474 26.1875L628.068 26.125L628.875 26.2813L629.385 26.2917L630.083 26.5104L636.531 27.7396L640.474 29.7865L645.427 31.349L648.594 34.0156L651.453 35.5052L654.229 38.7552L658.755 42.5677L661.599 47.3906L662.37 48.2969L663.073 49.8958L664.958 53.099L665.641 55.7396L665.839 56.1927L666.271 58.1823L668.016 64.9375C668.698 70.9531 670.563 76.5417 673.359 81.5052L681.693 91.2813L686.984 95.7135L698.823 101.885L702.646 102.729L706.682 103.5L712.495 103.625L715.125 103.589L723.438 102.083L726.203 101.693L732.453 100.563L733.974 100.594L735.594 100.365L737.786 100.677L741.073 100.745L746.005 101.833L747.75 102.083L748.526 102.396L749.349 102.578L753.703 104.469L756 105.391L756.349 105.62L757.068 105.932L757.953 106.677L763.203 110.125L765.87 113.318L769.953 116.74C773.536 121.172 776.307 126.38 777.979 132.203L778.542 136.193L779.167 139.026L779.203 140.896L779.682 144.313L779.323 146.875L779.339 147.651L778.786 150.667L777.974 156.432C776.302 162.255 775.891 168.146 776.578 173.802L778.396 181.995L783.578 191.958L789.932 199.526L797.141 205.677L799.531 207.245L801.276 208.01L807.401 210.458L814.708 212.042L815.203 212.141C818.214 212.479 821.12 213.12 823.885 214.021L825.995 214.948L826.823 215.161L827.823 215.75L831.781 217.49L834.042 219.422L837.359 221.375L839.953 224.458L844.578 228.401L846.714 232.5L848.568 234.714L849.651 238.135L852.349 243.318C853.156 246.052 853.703 248.885 853.958 251.792L853.875 258.62H763.609L756.625 244.12C705.818 150.594 606.724 87.1094 492.802 87.1094C378.88 87.1094 279.786 150.594 228.979 244.12L221.995 258.62H131.729L131.641 251.792C131.901 248.885 132.448 246.052 133.255 243.318L135.953 238.135L137.036 234.714L138.891 232.5L141.026 228.401L145.651 224.458L148.24 221.375L151.557 219.422L153.823 217.49L157.786 215.75L158.781 215.161L159.615 214.948L161.714 214.021C164.484 213.12 167.391 212.479 170.396 212.141L170.906 212.042L178.203 210.458L184.328 208.01L186.073 207.245L188.464 205.677L195.672 199.526L202.026 191.953L207.208 182L209.026 173.802C209.708 168.146 209.302 162.255 207.63 156.432L206.818 150.677L206.266 147.651L206.281 146.875L205.922 144.313L206.401 140.896L206.438 139.026L207.063 136.193L207.625 132.203C209.297 126.38 212.068 121.172 215.651 116.74L219.734 113.318L222.401 110.125L227.656 106.672L228.536 105.932L229.255 105.62L229.604 105.391L231.906 104.464L236.255 102.578L237.078 102.396L237.854 102.083L239.599 101.833L244.531 100.745L247.818 100.677L250.01 100.365L251.625 100.594L253.151 100.563L259.396 101.688L262.167 102.083L270.479 103.589L273.104 103.625L278.922 103.5L282.969 102.729L286.781 101.885L298.62 95.7135L303.911 91.2813L312.245 81.5052C315.042 76.5417 316.906 70.9531 317.589 64.9375L319.333 58.1823L319.766 56.1927L319.964 55.7396L320.646 53.099L322.536 49.8958L323.234 48.2969L324.005 47.3958L326.849 42.5677L331.375 38.7552L334.151 35.5052L337.01 34.0156L340.177 31.349L345.13 29.7865L349.073 27.7396L355.516 26.5104L356.219 26.2917L356.729 26.2813L357.536 26.125L362.13 26.1875L364.635 26.1406L365.099 26.224L366.427 26.2396L369.063 26.9219L372.984 27.6146L375.469 28.5833L378.292 29.3125L380.115 30.3854L381.021 30.7396L384.516 32.9896L388.844 35.5469C395.953 41.1979 404.276 44.2865 412.698 44.9479L420.969 44.7969L421.297 44.7344L432.505 41.1979L439.953 37.3646L446.125 32.1667L454.339 22.4479L460.052 14.8698L461.031 13.526L461.109 13.4583L461.698 12.6875L465.76 9.625L469.276 6.72396L470.203 6.27604L471.458 5.32813L474.651 4.14063L478.776 2.16667L481.536 1.58333L483.828 0.734375L486.229 0.59375L489.057 0Z" fill="#9B232C"/>
</g>
</svg>
