<svg width="810" height="832" viewBox="0 0 810 832" fill="none" xmlns="http://www.w3.org/2000/svg">
<mask id="mask0_12_1106" style="mask-type:luminance" maskUnits="userSpaceOnUse" x="0" y="572" width="233" height="255">
<path d="M0 572H232.646V826.667H0V572Z" fill="white"/>
</mask>
<g mask="url(#mask0_12_1106)">
<path d="M230.318 577.682C233.266 582.375 233.094 588.406 229.943 592.927C226.688 597.547 223.745 601.797 220.281 605.63C155.38 677.724 90.5834 749.922 24.8959 821.292C24.0053 822.25 23.0105 823.109 21.9168 823.859C10.172 832.01 -5.58322 818.245 1.98449 806.089C2.35949 805.469 2.8074 804.891 3.25011 804.375C69.1772 730.125 136 656.698 203.125 583.578C208.469 577.755 216.859 569.943 225.901 572.755C226.859 573.026 228.505 574.74 230.318 577.682Z" fill="#9B232C"/>
</g>
<path d="M275.562 605.151C278.505 609.844 278.302 615.87 275.114 620.391C271.859 625.016 268.849 629.229 265.39 633.031C200.146 704.812 251.828 650.187 185.797 721.219C184.906 722.177 183.911 723.036 182.781 723.786C171 731.906 155.312 718.036 162.916 705.911C163.291 705.292 163.739 704.713 164.218 704.198C230.489 630.255 180.828 683.682 248.297 610.87C253.677 605.047 262.099 597.307 271.14 600.151C272.099 600.495 273.745 602.208 275.562 605.151Z" fill="#9B232C"/>
<path d="M317.786 641.49C320.734 646.182 320.526 652.208 317.344 656.729C314.088 661.354 311.073 665.568 307.614 669.37C242.375 741.151 233.64 755.708 167.609 826.74C166.718 827.698 165.724 828.552 164.593 829.307C152.812 837.422 137.13 823.552 144.729 811.427C145.109 810.812 145.552 810.229 146.031 809.719C212.302 735.776 223.057 720.021 290.562 647.208C295.937 641.385 304.364 633.646 313.406 636.49C314.328 636.797 315.974 638.542 317.786 641.49Z" fill="#9B232C"/>
<path d="M520.297 247.771C521.119 206.401 550.573 178.245 592.838 178.521C636.057 178.76 667.328 210.714 667.531 254.724C667.703 293.391 634.755 325.036 594.479 324.932C552.323 324.865 519.442 290.651 520.297 247.771ZM594.718 297.365C620.203 296.917 639.244 276.745 638.833 250.646C638.422 225.234 618.146 205.542 592.63 205.781C567.286 206.057 547.422 226.812 548.281 252.156C549.135 277.328 570.13 297.771 594.718 297.365Z" fill="#9B232C"/>
<mask id="mask1_12_1106" style="mask-type:luminance" maskUnits="userSpaceOnUse" x="97" y="0" width="713" height="778">
<path d="M97.979 0H809.599V777.333H97.979V0Z" fill="white"/>
</mask>
<g mask="url(#mask1_12_1106)">
<path d="M772.88 1.93755C661.026 24.6771 563.041 71.6667 488.755 161.193C458.104 198.109 428.411 235.922 395.875 271.094C384.604 283.287 367.005 292.12 350.666 296.609C316.625 305.958 281.281 310.547 246.927 318.87C235.286 321.677 221.791 327.193 214.494 335.927C176.515 381.578 139.937 428.396 103.875 475.589C99.385 481.479 97.0934 496.344 100.552 499.427C106.786 504.943 118.666 507.75 127.229 506.245C164.323 499.667 200.968 490.625 237.953 483.537C247.989 481.62 258.708 483.229 274.5 483.229C267.989 493.021 265.661 498.021 262.031 501.724C240.729 523.365 247.958 537.99 268.057 558.266C291.588 581.964 317.276 601.865 343.369 622.073C358.989 634.125 371.078 636.969 383.578 619.979C388.921 612.719 393.817 605.083 398.921 597.651C402.895 599.328 406.869 601.01 410.838 602.688C412.52 614.573 415.671 626.453 415.635 638.339C415.567 676.047 413.854 713.719 413.89 751.427C413.89 759.646 418.375 767.833 420.77 776.052C429.744 773.005 440.911 772.354 447.317 766.495C466.666 748.823 482.692 727.318 502.729 710.537C563.213 659.917 585.406 595.255 576.192 518.708C572.698 489.802 584.135 469.188 603.52 448.979C634.312 416.823 663.526 383.052 691.849 348.667C767.057 257.292 805.619 152.115 809.25 33.6511C810.041 5.63546 800.38 -3.64579 772.88 1.93755ZM260.833 440.589C252.51 450.214 235.489 453.708 221.755 456.995C198.739 462.505 175.177 465.589 150.692 469.87C179.906 387.505 246.005 339.318 347.651 329.318C316.656 369.625 290.286 406.443 260.833 440.589ZM309.364 556.792C305.286 560.87 298.645 560.87 294.567 556.792L270.63 532.854C266.552 528.776 266.552 522.135 270.63 518.057L284.156 504.531C288.234 500.453 294.875 500.453 298.953 504.531L322.89 528.505C326.968 532.578 326.968 539.224 322.89 543.302L309.364 556.792ZM379.093 592.344L365.562 605.87C361.489 609.948 354.843 609.948 350.77 605.87L326.828 581.896C322.755 577.823 322.755 571.177 326.828 567.104L340.359 553.573C344.432 549.5 351.078 549.5 355.151 553.573L379.093 577.516C383.166 581.625 383.166 588.266 379.093 592.344ZM449.849 720.5C414.401 619.948 488.552 574.537 543.552 517.167C570.093 613.818 508.656 666.011 449.849 720.5ZM729.625 241.432C694.864 287.875 662.052 336.031 624.411 380.073C564.547 450.109 501.427 517.339 436.661 589.089C411.151 567.104 390.739 549.531 368.817 530.63C403.031 491.073 435.703 454.766 466.255 416.75C473.067 408.292 472.317 393.74 475.057 381.99C465.125 387.604 452.968 391.135 445.703 399.182C412.895 435.417 381.489 472.885 347 512.953C326.317 493.88 307.546 476.583 285.802 456.583C317.687 416.135 346.588 376.75 378.27 339.76C440.567 267.089 504.302 195.646 567.63 123.896C588.52 100.193 607.937 97.1823 632.395 122.797C659.859 151.531 691.062 176.979 722.364 201.641C738.531 214.313 741.302 225.818 729.625 241.432ZM780.552 48.4792C772.744 93.5157 764.797 139.172 755.515 192.599C709.145 152.698 670.817 119.719 624.411 79.7813C675.203 62.625 717.672 48.2761 759.385 34.198L762.229 33.1355C772.229 29.3021 782.536 37.9323 780.552 48.4792Z" fill="#9B232C"/>
</g>
</svg>
